<svg xmlns="http://www.w3.org/2000/svg" xmlns:xlink="http://www.w3.org/1999/xlink" width="300" zoomAndPan="magnify" viewBox="0 0 224.87999 38.249999" height="51" preserveAspectRatio="xMidYMid meet" version="1.0"><defs><g/></defs><g fill="#ffe064" fill-opacity="0.302"><g transform="translate(45.663783, 30.298576)"><g><path d="M 4.953125 -20.589844 C 4.25 -17.078125 3.585938 -13.085938 3.585938 -9.648438 C 3.585938 -9.5 3.585938 -9.351562 3.585938 -9.203125 C 3.621094 -7.613281 3.472656 -6.0625 3.472656 -4.507812 C 3.472656 -2.179688 3.917969 -0.515625 5.988281 -0.515625 C 7.132812 -0.515625 8.058594 0.0351562 9.242188 0.0351562 C 10.460938 0.0351562 11.9375 -0.515625 12.824219 -2.03125 C 13.195312 -2.660156 13.566406 -3.328125 14.121094 -3.808594 C 16.152344 -6.0625 16.632812 -11.199219 16.632812 -15.082031 C 16.632812 -17.742188 15.710938 -19.292969 14.675781 -21.328125 C 13.566406 -23.914062 11.015625 -25.207031 8.835938 -25.207031 C 2.957031 -25.207031 1.21875 -20.253906 0.738281 -15.375 C 0.738281 -14.15625 1.476562 -12.824219 1.515625 -11.382812 C 1.550781 -10.941406 2.03125 -10.570312 2.367188 -10.570312 C 2.773438 -10.570312 2.921875 -10.976562 2.921875 -11.421875 C 2.921875 -12.125 2.585938 -12.789062 2.511719 -13.417969 C 2.511719 -15.78125 2.992188 -19.589844 4.953125 -20.589844 Z M 8.613281 -21.957031 C 9.054688 -22.03125 9.460938 -22.105469 9.867188 -22.105469 C 10.867188 -22.105469 12.566406 -20.847656 12.9375 -19.367188 C 13.160156 -18.40625 13.269531 -17.484375 13.269531 -16.558594 C 13.269531 -15.523438 13.121094 -4.988281 7.503906 -2.882812 C 7.464844 -3.140625 7.464844 -3.328125 7.464844 -3.4375 C 7.761719 -6.542969 8.09375 -9.609375 8.464844 -12.714844 C 8.761719 -15.082031 8.90625 -17.484375 8.90625 -19.921875 C 8.90625 -20.550781 8.761719 -21.214844 8.613281 -21.957031 Z M 8.613281 -21.957031 "/></g></g></g><g fill="#ffe064" fill-opacity="0.302"><g transform="translate(64.145175, 30.298576)"><g><path d="M 5.804688 -24.914062 C 7.464844 -24.914062 12.273438 -24.800781 12.273438 -26.207031 C 12.273438 -27.242188 10.570312 -27.203125 9.941406 -27.203125 C 7.984375 -27.09375 5.949219 -27.128906 3.953125 -26.648438 C 3.882812 -26.648438 3.808594 -26.613281 3.734375 -26.613281 C 3.546875 -26.613281 3.402344 -26.648438 3.289062 -26.648438 C 2.585938 -26.613281 2.253906 -26.316406 2.253906 -25.6875 C 2.253906 -24.617188 2.476562 -23.582031 2.476562 -22.65625 C 2.476562 -21.363281 2.328125 -20.070312 2.253906 -18.777344 C 2.070312 -15.042969 1.847656 -11.273438 1.847656 -7.539062 C 1.847656 -4.730469 1.960938 0.445312 3.84375 0.445312 C 3.882812 0.445312 3.917969 0.40625 3.953125 0.40625 C 4.398438 0.40625 4.84375 0.480469 5.285156 0.480469 C 5.949219 0.480469 6.578125 0.222656 7.246094 0.222656 C 7.613281 0.222656 8.019531 0.296875 8.390625 0.296875 C 9.980469 0.296875 12.234375 0.222656 12.234375 -1.183594 C 12.234375 -1.996094 10.867188 -2.144531 9.648438 -2.144531 C 9.128906 -2.179688 6.652344 -1.664062 6.652344 -3.066406 C 6.652344 -3.769531 6.875 -4.433594 6.875 -5.101562 C 6.875 -5.507812 6.800781 -5.914062 6.800781 -6.320312 C 6.800781 -7.652344 7.023438 -8.945312 7.023438 -10.164062 C 7.023438 -10.277344 6.984375 -10.421875 6.984375 -10.609375 C 6.984375 -12.050781 7.464844 -13.417969 7.464844 -14.75 C 7.464844 -15.636719 8.390625 -15.523438 9.09375 -15.523438 C 9.5 -15.523438 9.867188 -15.523438 10.238281 -15.523438 C 10.941406 -15.523438 11.644531 -15.300781 11.644531 -16.449219 C 11.644531 -17.777344 10.421875 -17.667969 9.941406 -17.667969 C 9.5 -17.667969 9.054688 -17.632812 8.648438 -17.632812 C 8.316406 -17.632812 8.019531 -17.632812 7.726562 -17.742188 C 7.464844 -19.367188 7.097656 -20.808594 6.875 -22.324219 C 6.726562 -23.324219 5.804688 -24.027344 5.804688 -24.726562 C 5.804688 -24.800781 5.804688 -24.839844 5.804688 -24.914062 Z M 5.804688 -24.914062 "/></g></g></g><g fill="#ffe064" fill-opacity="0.302"><g transform="translate(77.525701, 30.298576)"><g><path d="M 7.578125 0.0351562 C 8.6875 -2.550781 8.835938 -3.066406 9.203125 -5.433594 C 9.203125 -5.65625 9.203125 -5.804688 9.351562 -6.023438 C 9.980469 -7.761719 10.3125 -9.535156 10.71875 -11.3125 C 11.382812 -15.007812 12.125 -18.59375 13.714844 -21.917969 C 13.933594 -22.398438 14.046875 -23.175781 14.046875 -23.621094 C 14.046875 -24.210938 13.378906 -24.726562 13.011719 -24.726562 C 12.050781 -24.726562 11.050781 -20.664062 10.71875 -19.332031 C 9.683594 -15.449219 7.910156 -6.726562 7.726562 -6.726562 C 7.503906 -6.726562 6.910156 -10.570312 6.910156 -11.164062 C 6.910156 -11.570312 7.023438 -11.976562 7.023438 -12.382812 C 7.023438 -12.53125 7.023438 -12.679688 7.023438 -12.789062 C 6.542969 -15.710938 6.171875 -18.667969 4.917969 -21.402344 C 4.324219 -22.65625 2.992188 -24.359375 1.589844 -24.359375 C 1.332031 -24.359375 1.035156 -24.285156 0.738281 -24.136719 C 0.851562 -23.210938 0.851562 -22.175781 1.035156 -21.179688 C 1.367188 -19.367188 1.699219 -17.484375 1.960938 -15.636719 C 2.550781 -11.238281 2.957031 -6.875 3.695312 -2.441406 C 3.953125 -0.886719 4.695312 0.332031 6.617188 0.332031 C 6.910156 0.332031 7.246094 0.257812 7.578125 0.0351562 Z M 7.578125 0.0351562 "/></g></g></g><g fill="#ffe064" fill-opacity="0.302"><g transform="translate(91.941183, 30.298576)"><g><path d="M 4.730469 -24.652344 C 4.507812 -24.246094 4.25 -23.765625 4.101562 -23.285156 C 2.292969 -17.558594 1.886719 -12.199219 1.144531 -6.617188 C 0.996094 -4.769531 0.738281 -2.957031 0.738281 -1.183594 C 0.738281 -0.777344 0.738281 -0.40625 0.777344 -0.0351562 C 1.21875 0.222656 1.441406 0.371094 1.589844 0.371094 C 1.8125 0.371094 2.070312 -0.148438 2.402344 -0.925781 C 3.472656 -2.21875 3.03125 -7.800781 3.84375 -10.867188 C 4.066406 -10.867188 4.289062 -10.902344 4.546875 -10.902344 C 4.804688 -10.902344 5.101562 -10.867188 5.359375 -10.867188 C 6.097656 -10.867188 6.800781 -10.941406 7.539062 -11.382812 C 7.910156 -8.761719 8.207031 -5.433594 8.390625 -2.476562 C 8.464844 -1.367188 9.019531 -0.109375 10.164062 -0.109375 C 10.832031 -0.183594 11.570312 -0.0742188 12.234375 -0.445312 C 12.417969 -1.035156 12.566406 -1.550781 12.566406 -2.179688 C 12.566406 -2.585938 12.53125 -2.992188 12.53125 -3.402344 C 12.53125 -4.582031 12.789062 -5.765625 12.789062 -6.800781 C 12.789062 -7.132812 12.789062 -7.503906 12.753906 -7.835938 C 12.308594 -11.457031 12.011719 -14.121094 11.238281 -16.855469 C 10.203125 -20.035156 10.496094 -23.65625 6.949219 -24.652344 C 6.691406 -24.691406 6.46875 -24.914062 6.210938 -25.0625 C 5.765625 -24.914062 5.359375 -24.839844 4.730469 -24.652344 Z M 7.355469 -13.046875 C 6.503906 -12.789062 5.988281 -12.679688 5.433594 -12.679688 C 5.0625 -12.679688 3.953125 -12.605469 3.953125 -13.453125 C 3.953125 -14.453125 4.140625 -15.710938 4.472656 -16.671875 C 4.582031 -17.078125 4.953125 -22.289062 5.46875 -22.289062 C 5.691406 -22.289062 5.765625 -22.175781 5.804688 -22.03125 C 6.210938 -19 6.765625 -16.042969 7.355469 -13.046875 Z M 7.355469 -13.046875 "/></g></g></g><g fill="#ffe064" fill-opacity="0.302"><g transform="translate(106.948069, 30.298576)"><g><path d="M 4.769531 -24.726562 C 4.621094 -24.726562 4.363281 -24.800781 4.175781 -24.800781 C 2.921875 -24.800781 2.808594 -24.582031 2.699219 -23.101562 C 2.328125 -17.816406 2.511719 -12.273438 2.03125 -6.910156 C 1.921875 -5.914062 1.886719 -4.878906 1.886719 -3.882812 C 1.886719 -2.292969 1.699219 -0.554688 3.066406 0.183594 C 3.953125 -0.332031 4.175781 -1.035156 4.175781 -1.960938 C 4.175781 -4.289062 4.363281 -6.46875 4.363281 -8.796875 C 4.363281 -12.492188 4.027344 -16.117188 4.027344 -19.773438 C 4.027344 -20.292969 4.066406 -20.773438 4.140625 -21.328125 C 4.621094 -21.289062 5.46875 -17.519531 5.878906 -16.117188 C 7.097656 -12.011719 7.464844 -7.910156 8.722656 -3.953125 C 9.203125 -2.144531 10.238281 0.371094 12.050781 0.371094 C 12.53125 0.371094 13.011719 0.183594 13.417969 0.0742188 C 14.96875 -2.847656 14.15625 -5.691406 14.859375 -8.425781 C 15.007812 -9.09375 15.265625 -9.683594 15.265625 -10.347656 C 15.265625 -10.644531 15.117188 -10.941406 15.117188 -11.238281 C 15.117188 -11.457031 15.230469 -11.71875 15.265625 -11.902344 C 15.523438 -13.085938 15.5625 -14.339844 15.5625 -15.488281 C 15.488281 -17.667969 15.449219 -19.773438 15.449219 -21.769531 C 15.449219 -22.140625 15.488281 -22.511719 15.488281 -22.878906 C 15.488281 -23.804688 14.527344 -24.726562 13.75 -24.726562 C 13.011719 -24.726562 13.121094 -23.953125 13.121094 -23.359375 C 13.121094 -20.402344 13.378906 -17.113281 13.378906 -13.859375 C 13.378906 -13.160156 13.34375 -12.457031 13.269531 -11.792969 C 13.085938 -9.609375 13.269531 -6.285156 12.492188 -4.917969 C 12.050781 -5.617188 12.050781 -6.429688 12.050781 -7.171875 C 12.050781 -7.355469 12.050781 -7.578125 12.050781 -7.800781 C 12.050781 -9.351562 11.605469 -11.421875 11.164062 -12.972656 C 10.496094 -15.15625 9.722656 -17.519531 9.128906 -19.699219 C 8.167969 -22.03125 6.503906 -23.359375 4.769531 -24.726562 Z M 4.769531 -24.726562 "/></g></g></g><g fill="#ffe064" fill-opacity="0.302"><g transform="translate(124.357534, 30.298576)"><g/></g></g><g fill="#ffe064" fill-opacity="0.302"><g transform="translate(131.010836, 30.298576)"><g><path d="M 9.980469 -21.84375 C 10.347656 -21.695312 10.644531 -21.625 10.832031 -21.625 C 11.273438 -21.625 11.421875 -22.105469 11.421875 -23.066406 C 11.421875 -24.875 10.015625 -25.910156 8.242188 -25.910156 C 5.210938 -25.910156 3.660156 -22.878906 3.289062 -20.441406 C 2.402344 -16.597656 1.476562 -12.53125 1.476562 -8.574219 C 1.476562 -3.03125 3.03125 0.0351562 7.910156 0.0351562 C 8.648438 0.0351562 9.316406 -0.0742188 10.054688 -0.296875 C 12.125 -0.851562 13.714844 -3.808594 13.714844 -5.582031 C 13.714844 -6.285156 13.011719 -7.984375 12.382812 -7.984375 C 11.9375 -7.984375 11.828125 -7.058594 11.71875 -6.542969 C 11.570312 -4.289062 9.722656 -2.441406 7.320312 -2.441406 C 6.542969 -2.441406 5.765625 -2.585938 5.765625 -3.992188 C 5.765625 -5.730469 6.0625 -7.539062 6.0625 -9.277344 C 6.429688 -12.273438 7.097656 -15.523438 7.578125 -18.59375 C 7.6875 -19.40625 7.429688 -23.878906 9.09375 -23.878906 C 10.089844 -23.878906 9.980469 -22.730469 9.980469 -21.84375 Z M 9.980469 -21.84375 "/></g></g></g><g fill="#ffe064" fill-opacity="0.302"><g transform="translate(145.463279, 30.298576)"><g><path d="M 5.804688 -24.914062 C 7.464844 -24.914062 12.273438 -24.800781 12.273438 -26.207031 C 12.273438 -27.242188 10.570312 -27.203125 9.941406 -27.203125 C 7.984375 -27.09375 5.949219 -27.128906 3.953125 -26.648438 C 3.882812 -26.648438 3.808594 -26.613281 3.734375 -26.613281 C 3.546875 -26.613281 3.402344 -26.648438 3.289062 -26.648438 C 2.585938 -26.613281 2.253906 -26.316406 2.253906 -25.6875 C 2.253906 -24.617188 2.476562 -23.582031 2.476562 -22.65625 C 2.476562 -21.363281 2.328125 -20.070312 2.253906 -18.777344 C 2.070312 -15.042969 1.847656 -11.273438 1.847656 -7.539062 C 1.847656 -4.730469 1.960938 0.445312 3.84375 0.445312 C 3.882812 0.445312 3.917969 0.40625 3.953125 0.40625 C 4.398438 0.40625 4.84375 0.480469 5.285156 0.480469 C 5.949219 0.480469 6.578125 0.222656 7.246094 0.222656 C 7.613281 0.222656 8.019531 0.296875 8.390625 0.296875 C 9.980469 0.296875 12.234375 0.222656 12.234375 -1.183594 C 12.234375 -1.996094 10.867188 -2.144531 9.648438 -2.144531 C 9.128906 -2.179688 6.652344 -1.664062 6.652344 -3.066406 C 6.652344 -3.769531 6.875 -4.433594 6.875 -5.101562 C 6.875 -5.507812 6.800781 -5.914062 6.800781 -6.320312 C 6.800781 -7.652344 7.023438 -8.945312 7.023438 -10.164062 C 7.023438 -10.277344 6.984375 -10.421875 6.984375 -10.609375 C 6.984375 -12.050781 7.464844 -13.417969 7.464844 -14.75 C 7.464844 -15.636719 8.390625 -15.523438 9.09375 -15.523438 C 9.5 -15.523438 9.867188 -15.523438 10.238281 -15.523438 C 10.941406 -15.523438 11.644531 -15.300781 11.644531 -16.449219 C 11.644531 -17.777344 10.421875 -17.667969 9.941406 -17.667969 C 9.5 -17.667969 9.054688 -17.632812 8.648438 -17.632812 C 8.316406 -17.632812 8.019531 -17.632812 7.726562 -17.742188 C 7.464844 -19.367188 7.097656 -20.808594 6.875 -22.324219 C 6.726562 -23.324219 5.804688 -24.027344 5.804688 -24.726562 C 5.804688 -24.800781 5.804688 -24.839844 5.804688 -24.914062 Z M 5.804688 -24.914062 "/></g></g></g><g fill="#ffe064" fill-opacity="0.302"><g transform="translate(158.843805, 30.298576)"><g><path d="M 2.179688 -26.648438 C 2.179688 -25.835938 2.292969 -25.023438 2.292969 -24.171875 C 2.070312 -20.402344 1.847656 -16.597656 1.847656 -12.753906 C 1.847656 -10.277344 1.886719 -7.6875 1.886719 -5.175781 C 1.886719 -3.066406 1.960938 -2.773438 3.769531 -0.0742188 C 3.882812 0.257812 4.214844 0.332031 4.546875 0.332031 C 5.46875 0.257812 6.429688 0.0742188 7.207031 0.0742188 C 7.246094 0.0742188 7.28125 0.0742188 7.320312 0.0742188 C 8.425781 0.0742188 9.425781 -0.109375 10.421875 -0.296875 C 11.605469 -0.371094 13.527344 -0.371094 14.304688 -1.257812 C 13.859375 -2.550781 13.824219 -2.734375 12.714844 -2.734375 C 11.976562 -2.734375 11.382812 -2.660156 10.71875 -2.550781 C 9.054688 -2.105469 7.390625 -2.21875 5.617188 -2.03125 C 5.691406 -3.214844 6.097656 -4.140625 6.097656 -4.988281 C 6.097656 -5.988281 5.949219 -6.984375 5.949219 -7.984375 C 5.949219 -12.640625 6.503906 -16.558594 6.503906 -20.589844 C 6.503906 -21.660156 6.285156 -22.621094 6.097656 -23.65625 C 5.878906 -24.765625 4.730469 -27.09375 3.363281 -27.09375 C 2.957031 -27.09375 2.550781 -26.984375 2.179688 -26.648438 Z M 2.179688 -26.648438 "/></g></g></g><g fill="#ffe064" fill-opacity="0.302"><g transform="translate(173.148405, 30.298576)"><g><path d="M 2.179688 -26.648438 C 2.179688 -25.835938 2.292969 -25.023438 2.292969 -24.171875 C 2.070312 -20.402344 1.847656 -16.597656 1.847656 -12.753906 C 1.847656 -10.277344 1.886719 -7.6875 1.886719 -5.175781 C 1.886719 -3.066406 1.960938 -2.773438 3.769531 -0.0742188 C 3.882812 0.257812 4.214844 0.332031 4.546875 0.332031 C 5.46875 0.257812 6.429688 0.0742188 7.207031 0.0742188 C 7.246094 0.0742188 7.28125 0.0742188 7.320312 0.0742188 C 8.425781 0.0742188 9.425781 -0.109375 10.421875 -0.296875 C 11.605469 -0.371094 13.527344 -0.371094 14.304688 -1.257812 C 13.859375 -2.550781 13.824219 -2.734375 12.714844 -2.734375 C 11.976562 -2.734375 11.382812 -2.660156 10.71875 -2.550781 C 9.054688 -2.105469 7.390625 -2.21875 5.617188 -2.03125 C 5.691406 -3.214844 6.097656 -4.140625 6.097656 -4.988281 C 6.097656 -5.988281 5.949219 -6.984375 5.949219 -7.984375 C 5.949219 -12.640625 6.503906 -16.558594 6.503906 -20.589844 C 6.503906 -21.660156 6.285156 -22.621094 6.097656 -23.65625 C 5.878906 -24.765625 4.730469 -27.09375 3.363281 -27.09375 C 2.957031 -27.09375 2.550781 -26.984375 2.179688 -26.648438 Z M 2.179688 -26.648438 "/></g></g></g><g fill="#ffe064" fill-opacity="0.502"><g transform="translate(44.26262, 30.596402)"><g><path d="M 4.953125 -20.589844 C 4.25 -17.078125 3.585938 -13.085938 3.585938 -9.648438 C 3.585938 -9.5 3.585938 -9.351562 3.585938 -9.203125 C 3.621094 -7.613281 3.472656 -6.0625 3.472656 -4.507812 C 3.472656 -2.179688 3.917969 -0.515625 5.988281 -0.515625 C 7.132812 -0.515625 8.058594 0.0351562 9.242188 0.0351562 C 10.460938 0.0351562 11.9375 -0.515625 12.824219 -2.03125 C 13.195312 -2.660156 13.566406 -3.328125 14.121094 -3.808594 C 16.152344 -6.0625 16.632812 -11.199219 16.632812 -15.082031 C 16.632812 -17.742188 15.710938 -19.292969 14.675781 -21.328125 C 13.566406 -23.914062 11.015625 -25.207031 8.835938 -25.207031 C 2.957031 -25.207031 1.21875 -20.253906 0.738281 -15.375 C 0.738281 -14.15625 1.476562 -12.824219 1.515625 -11.382812 C 1.550781 -10.941406 2.03125 -10.570312 2.367188 -10.570312 C 2.773438 -10.570312 2.921875 -10.976562 2.921875 -11.421875 C 2.921875 -12.125 2.585938 -12.789062 2.511719 -13.417969 C 2.511719 -15.78125 2.992188 -19.589844 4.953125 -20.589844 Z M 8.613281 -21.957031 C 9.054688 -22.03125 9.460938 -22.105469 9.867188 -22.105469 C 10.867188 -22.105469 12.566406 -20.847656 12.9375 -19.367188 C 13.160156 -18.40625 13.269531 -17.484375 13.269531 -16.558594 C 13.269531 -15.523438 13.121094 -4.988281 7.503906 -2.882812 C 7.464844 -3.140625 7.464844 -3.328125 7.464844 -3.4375 C 7.761719 -6.542969 8.09375 -9.609375 8.464844 -12.714844 C 8.761719 -15.082031 8.90625 -17.484375 8.90625 -19.921875 C 8.90625 -20.550781 8.761719 -21.214844 8.613281 -21.957031 Z M 8.613281 -21.957031 "/></g></g></g><g fill="#ffe064" fill-opacity="0.502"><g transform="translate(62.744012, 30.596402)"><g><path d="M 5.804688 -24.914062 C 7.464844 -24.914062 12.273438 -24.800781 12.273438 -26.207031 C 12.273438 -27.242188 10.570312 -27.203125 9.941406 -27.203125 C 7.984375 -27.09375 5.949219 -27.128906 3.953125 -26.648438 C 3.882812 -26.648438 3.808594 -26.613281 3.734375 -26.613281 C 3.546875 -26.613281 3.402344 -26.648438 3.289062 -26.648438 C 2.585938 -26.613281 2.253906 -26.316406 2.253906 -25.6875 C 2.253906 -24.617188 2.476562 -23.582031 2.476562 -22.65625 C 2.476562 -21.363281 2.328125 -20.070312 2.253906 -18.777344 C 2.070312 -15.042969 1.847656 -11.273438 1.847656 -7.539062 C 1.847656 -4.730469 1.960938 0.445312 3.84375 0.445312 C 3.882812 0.445312 3.917969 0.40625 3.953125 0.40625 C 4.398438 0.40625 4.84375 0.480469 5.285156 0.480469 C 5.949219 0.480469 6.578125 0.222656 7.246094 0.222656 C 7.613281 0.222656 8.019531 0.296875 8.390625 0.296875 C 9.980469 0.296875 12.234375 0.222656 12.234375 -1.183594 C 12.234375 -1.996094 10.867188 -2.144531 9.648438 -2.144531 C 9.128906 -2.179688 6.652344 -1.664062 6.652344 -3.066406 C 6.652344 -3.769531 6.875 -4.433594 6.875 -5.101562 C 6.875 -5.507812 6.800781 -5.914062 6.800781 -6.320312 C 6.800781 -7.652344 7.023438 -8.945312 7.023438 -10.164062 C 7.023438 -10.277344 6.984375 -10.421875 6.984375 -10.609375 C 6.984375 -12.050781 7.464844 -13.417969 7.464844 -14.75 C 7.464844 -15.636719 8.390625 -15.523438 9.09375 -15.523438 C 9.5 -15.523438 9.867188 -15.523438 10.238281 -15.523438 C 10.941406 -15.523438 11.644531 -15.300781 11.644531 -16.449219 C 11.644531 -17.777344 10.421875 -17.667969 9.941406 -17.667969 C 9.5 -17.667969 9.054688 -17.632812 8.648438 -17.632812 C 8.316406 -17.632812 8.019531 -17.632812 7.726562 -17.742188 C 7.464844 -19.367188 7.097656 -20.808594 6.875 -22.324219 C 6.726562 -23.324219 5.804688 -24.027344 5.804688 -24.726562 C 5.804688 -24.800781 5.804688 -24.839844 5.804688 -24.914062 Z M 5.804688 -24.914062 "/></g></g></g><g fill="#ffe064" fill-opacity="0.502"><g transform="translate(76.124539, 30.596402)"><g><path d="M 7.578125 0.0351562 C 8.6875 -2.550781 8.835938 -3.066406 9.203125 -5.433594 C 9.203125 -5.65625 9.203125 -5.804688 9.351562 -6.023438 C 9.980469 -7.761719 10.3125 -9.535156 10.71875 -11.3125 C 11.382812 -15.007812 12.125 -18.59375 13.714844 -21.917969 C 13.933594 -22.398438 14.046875 -23.175781 14.046875 -23.621094 C 14.046875 -24.210938 13.378906 -24.726562 13.011719 -24.726562 C 12.050781 -24.726562 11.050781 -20.664062 10.71875 -19.332031 C 9.683594 -15.449219 7.910156 -6.726562 7.726562 -6.726562 C 7.503906 -6.726562 6.910156 -10.570312 6.910156 -11.164062 C 6.910156 -11.570312 7.023438 -11.976562 7.023438 -12.382812 C 7.023438 -12.53125 7.023438 -12.679688 7.023438 -12.789062 C 6.542969 -15.710938 6.171875 -18.667969 4.917969 -21.402344 C 4.324219 -22.65625 2.992188 -24.359375 1.589844 -24.359375 C 1.332031 -24.359375 1.035156 -24.285156 0.738281 -24.136719 C 0.851562 -23.210938 0.851562 -22.175781 1.035156 -21.179688 C 1.367188 -19.367188 1.699219 -17.484375 1.960938 -15.636719 C 2.550781 -11.238281 2.957031 -6.875 3.695312 -2.441406 C 3.953125 -0.886719 4.695312 0.332031 6.617188 0.332031 C 6.910156 0.332031 7.246094 0.257812 7.578125 0.0351562 Z M 7.578125 0.0351562 "/></g></g></g><g fill="#ffe064" fill-opacity="0.502"><g transform="translate(90.54002, 30.596402)"><g><path d="M 4.730469 -24.652344 C 4.507812 -24.246094 4.25 -23.765625 4.101562 -23.285156 C 2.292969 -17.558594 1.886719 -12.199219 1.144531 -6.617188 C 0.996094 -4.769531 0.738281 -2.957031 0.738281 -1.183594 C 0.738281 -0.777344 0.738281 -0.40625 0.777344 -0.0351562 C 1.21875 0.222656 1.441406 0.371094 1.589844 0.371094 C 1.8125 0.371094 2.070312 -0.148438 2.402344 -0.925781 C 3.472656 -2.21875 3.03125 -7.800781 3.84375 -10.867188 C 4.066406 -10.867188 4.289062 -10.902344 4.546875 -10.902344 C 4.804688 -10.902344 5.101562 -10.867188 5.359375 -10.867188 C 6.097656 -10.867188 6.800781 -10.941406 7.539062 -11.382812 C 7.910156 -8.761719 8.207031 -5.433594 8.390625 -2.476562 C 8.464844 -1.367188 9.019531 -0.109375 10.164062 -0.109375 C 10.832031 -0.183594 11.570312 -0.0742188 12.234375 -0.445312 C 12.417969 -1.035156 12.566406 -1.550781 12.566406 -2.179688 C 12.566406 -2.585938 12.53125 -2.992188 12.53125 -3.402344 C 12.53125 -4.582031 12.789062 -5.765625 12.789062 -6.800781 C 12.789062 -7.132812 12.789062 -7.503906 12.753906 -7.835938 C 12.308594 -11.457031 12.011719 -14.121094 11.238281 -16.855469 C 10.203125 -20.035156 10.496094 -23.65625 6.949219 -24.652344 C 6.691406 -24.691406 6.46875 -24.914062 6.210938 -25.0625 C 5.765625 -24.914062 5.359375 -24.839844 4.730469 -24.652344 Z M 7.355469 -13.046875 C 6.503906 -12.789062 5.988281 -12.679688 5.433594 -12.679688 C 5.0625 -12.679688 3.953125 -12.605469 3.953125 -13.453125 C 3.953125 -14.453125 4.140625 -15.710938 4.472656 -16.671875 C 4.582031 -17.078125 4.953125 -22.289062 5.46875 -22.289062 C 5.691406 -22.289062 5.765625 -22.175781 5.804688 -22.03125 C 6.210938 -19 6.765625 -16.042969 7.355469 -13.046875 Z M 7.355469 -13.046875 "/></g></g></g><g fill="#ffe064" fill-opacity="0.502"><g transform="translate(105.546907, 30.596402)"><g><path d="M 4.769531 -24.726562 C 4.621094 -24.726562 4.363281 -24.800781 4.175781 -24.800781 C 2.921875 -24.800781 2.808594 -24.582031 2.699219 -23.101562 C 2.328125 -17.816406 2.511719 -12.273438 2.03125 -6.910156 C 1.921875 -5.914062 1.886719 -4.878906 1.886719 -3.882812 C 1.886719 -2.292969 1.699219 -0.554688 3.066406 0.183594 C 3.953125 -0.332031 4.175781 -1.035156 4.175781 -1.960938 C 4.175781 -4.289062 4.363281 -6.46875 4.363281 -8.796875 C 4.363281 -12.492188 4.027344 -16.117188 4.027344 -19.773438 C 4.027344 -20.292969 4.066406 -20.773438 4.140625 -21.328125 C 4.621094 -21.289062 5.46875 -17.519531 5.878906 -16.117188 C 7.097656 -12.011719 7.464844 -7.910156 8.722656 -3.953125 C 9.203125 -2.144531 10.238281 0.371094 12.050781 0.371094 C 12.53125 0.371094 13.011719 0.183594 13.417969 0.0742188 C 14.96875 -2.847656 14.15625 -5.691406 14.859375 -8.425781 C 15.007812 -9.09375 15.265625 -9.683594 15.265625 -10.347656 C 15.265625 -10.644531 15.117188 -10.941406 15.117188 -11.238281 C 15.117188 -11.457031 15.230469 -11.71875 15.265625 -11.902344 C 15.523438 -13.085938 15.5625 -14.339844 15.5625 -15.488281 C 15.488281 -17.667969 15.449219 -19.773438 15.449219 -21.769531 C 15.449219 -22.140625 15.488281 -22.511719 15.488281 -22.878906 C 15.488281 -23.804688 14.527344 -24.726562 13.75 -24.726562 C 13.011719 -24.726562 13.121094 -23.953125 13.121094 -23.359375 C 13.121094 -20.402344 13.378906 -17.113281 13.378906 -13.859375 C 13.378906 -13.160156 13.34375 -12.457031 13.269531 -11.792969 C 13.085938 -9.609375 13.269531 -6.285156 12.492188 -4.917969 C 12.050781 -5.617188 12.050781 -6.429688 12.050781 -7.171875 C 12.050781 -7.355469 12.050781 -7.578125 12.050781 -7.800781 C 12.050781 -9.351562 11.605469 -11.421875 11.164062 -12.972656 C 10.496094 -15.15625 9.722656 -17.519531 9.128906 -19.699219 C 8.167969 -22.03125 6.503906 -23.359375 4.769531 -24.726562 Z M 4.769531 -24.726562 "/></g></g></g><g fill="#ffe064" fill-opacity="0.502"><g transform="translate(122.956371, 30.596402)"><g/></g></g><g fill="#ffe064" fill-opacity="0.502"><g transform="translate(129.609674, 30.596402)"><g><path d="M 9.980469 -21.84375 C 10.347656 -21.695312 10.644531 -21.625 10.832031 -21.625 C 11.273438 -21.625 11.421875 -22.105469 11.421875 -23.066406 C 11.421875 -24.875 10.015625 -25.910156 8.242188 -25.910156 C 5.210938 -25.910156 3.660156 -22.878906 3.289062 -20.441406 C 2.402344 -16.597656 1.476562 -12.53125 1.476562 -8.574219 C 1.476562 -3.03125 3.03125 0.0351562 7.910156 0.0351562 C 8.648438 0.0351562 9.316406 -0.0742188 10.054688 -0.296875 C 12.125 -0.851562 13.714844 -3.808594 13.714844 -5.582031 C 13.714844 -6.285156 13.011719 -7.984375 12.382812 -7.984375 C 11.9375 -7.984375 11.828125 -7.058594 11.71875 -6.542969 C 11.570312 -4.289062 9.722656 -2.441406 7.320312 -2.441406 C 6.542969 -2.441406 5.765625 -2.585938 5.765625 -3.992188 C 5.765625 -5.730469 6.0625 -7.539062 6.0625 -9.277344 C 6.429688 -12.273438 7.097656 -15.523438 7.578125 -18.59375 C 7.6875 -19.40625 7.429688 -23.878906 9.09375 -23.878906 C 10.089844 -23.878906 9.980469 -22.730469 9.980469 -21.84375 Z M 9.980469 -21.84375 "/></g></g></g><g fill="#ffe064" fill-opacity="0.502"><g transform="translate(144.062116, 30.596402)"><g><path d="M 5.804688 -24.914062 C 7.464844 -24.914062 12.273438 -24.800781 12.273438 -26.207031 C 12.273438 -27.242188 10.570312 -27.203125 9.941406 -27.203125 C 7.984375 -27.09375 5.949219 -27.128906 3.953125 -26.648438 C 3.882812 -26.648438 3.808594 -26.613281 3.734375 -26.613281 C 3.546875 -26.613281 3.402344 -26.648438 3.289062 -26.648438 C 2.585938 -26.613281 2.253906 -26.316406 2.253906 -25.6875 C 2.253906 -24.617188 2.476562 -23.582031 2.476562 -22.65625 C 2.476562 -21.363281 2.328125 -20.070312 2.253906 -18.777344 C 2.070312 -15.042969 1.847656 -11.273438 1.847656 -7.539062 C 1.847656 -4.730469 1.960938 0.445312 3.84375 0.445312 C 3.882812 0.445312 3.917969 0.40625 3.953125 0.40625 C 4.398438 0.40625 4.84375 0.480469 5.285156 0.480469 C 5.949219 0.480469 6.578125 0.222656 7.246094 0.222656 C 7.613281 0.222656 8.019531 0.296875 8.390625 0.296875 C 9.980469 0.296875 12.234375 0.222656 12.234375 -1.183594 C 12.234375 -1.996094 10.867188 -2.144531 9.648438 -2.144531 C 9.128906 -2.179688 6.652344 -1.664062 6.652344 -3.066406 C 6.652344 -3.769531 6.875 -4.433594 6.875 -5.101562 C 6.875 -5.507812 6.800781 -5.914062 6.800781 -6.320312 C 6.800781 -7.652344 7.023438 -8.945312 7.023438 -10.164062 C 7.023438 -10.277344 6.984375 -10.421875 6.984375 -10.609375 C 6.984375 -12.050781 7.464844 -13.417969 7.464844 -14.75 C 7.464844 -15.636719 8.390625 -15.523438 9.09375 -15.523438 C 9.5 -15.523438 9.867188 -15.523438 10.238281 -15.523438 C 10.941406 -15.523438 11.644531 -15.300781 11.644531 -16.449219 C 11.644531 -17.777344 10.421875 -17.667969 9.941406 -17.667969 C 9.5 -17.667969 9.054688 -17.632812 8.648438 -17.632812 C 8.316406 -17.632812 8.019531 -17.632812 7.726562 -17.742188 C 7.464844 -19.367188 7.097656 -20.808594 6.875 -22.324219 C 6.726562 -23.324219 5.804688 -24.027344 5.804688 -24.726562 C 5.804688 -24.800781 5.804688 -24.839844 5.804688 -24.914062 Z M 5.804688 -24.914062 "/></g></g></g><g fill="#ffe064" fill-opacity="0.502"><g transform="translate(157.442642, 30.596402)"><g><path d="M 2.179688 -26.648438 C 2.179688 -25.835938 2.292969 -25.023438 2.292969 -24.171875 C 2.070312 -20.402344 1.847656 -16.597656 1.847656 -12.753906 C 1.847656 -10.277344 1.886719 -7.6875 1.886719 -5.175781 C 1.886719 -3.066406 1.960938 -2.773438 3.769531 -0.0742188 C 3.882812 0.257812 4.214844 0.332031 4.546875 0.332031 C 5.46875 0.257812 6.429688 0.0742188 7.207031 0.0742188 C 7.246094 0.0742188 7.28125 0.0742188 7.320312 0.0742188 C 8.425781 0.0742188 9.425781 -0.109375 10.421875 -0.296875 C 11.605469 -0.371094 13.527344 -0.371094 14.304688 -1.257812 C 13.859375 -2.550781 13.824219 -2.734375 12.714844 -2.734375 C 11.976562 -2.734375 11.382812 -2.660156 10.71875 -2.550781 C 9.054688 -2.105469 7.390625 -2.21875 5.617188 -2.03125 C 5.691406 -3.214844 6.097656 -4.140625 6.097656 -4.988281 C 6.097656 -5.988281 5.949219 -6.984375 5.949219 -7.984375 C 5.949219 -12.640625 6.503906 -16.558594 6.503906 -20.589844 C 6.503906 -21.660156 6.285156 -22.621094 6.097656 -23.65625 C 5.878906 -24.765625 4.730469 -27.09375 3.363281 -27.09375 C 2.957031 -27.09375 2.550781 -26.984375 2.179688 -26.648438 Z M 2.179688 -26.648438 "/></g></g></g><g fill="#ffe064" fill-opacity="0.502"><g transform="translate(171.747242, 30.596402)"><g><path d="M 2.179688 -26.648438 C 2.179688 -25.835938 2.292969 -25.023438 2.292969 -24.171875 C 2.070312 -20.402344 1.847656 -16.597656 1.847656 -12.753906 C 1.847656 -10.277344 1.886719 -7.6875 1.886719 -5.175781 C 1.886719 -3.066406 1.960938 -2.773438 3.769531 -0.0742188 C 3.882812 0.257812 4.214844 0.332031 4.546875 0.332031 C 5.46875 0.257812 6.429688 0.0742188 7.207031 0.0742188 C 7.246094 0.0742188 7.28125 0.0742188 7.320312 0.0742188 C 8.425781 0.0742188 9.425781 -0.109375 10.421875 -0.296875 C 11.605469 -0.371094 13.527344 -0.371094 14.304688 -1.257812 C 13.859375 -2.550781 13.824219 -2.734375 12.714844 -2.734375 C 11.976562 -2.734375 11.382812 -2.660156 10.71875 -2.550781 C 9.054688 -2.105469 7.390625 -2.21875 5.617188 -2.03125 C 5.691406 -3.214844 6.097656 -4.140625 6.097656 -4.988281 C 6.097656 -5.988281 5.949219 -6.984375 5.949219 -7.984375 C 5.949219 -12.640625 6.503906 -16.558594 6.503906 -20.589844 C 6.503906 -21.660156 6.285156 -22.621094 6.097656 -23.65625 C 5.878906 -24.765625 4.730469 -27.09375 3.363281 -27.09375 C 2.957031 -27.09375 2.550781 -26.984375 2.179688 -26.648438 Z M 2.179688 -26.648438 "/></g></g></g><g fill="#ffde59" fill-opacity="1"><g transform="translate(42.861458, 30.894229)"><g><path d="M 4.953125 -20.589844 C 4.25 -17.078125 3.585938 -13.085938 3.585938 -9.648438 C 3.585938 -9.5 3.585938 -9.351562 3.585938 -9.203125 C 3.621094 -7.613281 3.472656 -6.0625 3.472656 -4.507812 C 3.472656 -2.179688 3.917969 -0.515625 5.988281 -0.515625 C 7.132812 -0.515625 8.058594 0.0351562 9.242188 0.0351562 C 10.460938 0.0351562 11.9375 -0.515625 12.824219 -2.03125 C 13.195312 -2.660156 13.566406 -3.328125 14.121094 -3.808594 C 16.152344 -6.0625 16.632812 -11.199219 16.632812 -15.082031 C 16.632812 -17.742188 15.710938 -19.292969 14.675781 -21.328125 C 13.566406 -23.914062 11.015625 -25.207031 8.835938 -25.207031 C 2.957031 -25.207031 1.21875 -20.253906 0.738281 -15.375 C 0.738281 -14.15625 1.476562 -12.824219 1.515625 -11.382812 C 1.550781 -10.941406 2.03125 -10.570312 2.367188 -10.570312 C 2.773438 -10.570312 2.921875 -10.976562 2.921875 -11.421875 C 2.921875 -12.125 2.585938 -12.789062 2.511719 -13.417969 C 2.511719 -15.78125 2.992188 -19.589844 4.953125 -20.589844 Z M 8.613281 -21.957031 C 9.054688 -22.03125 9.460938 -22.105469 9.867188 -22.105469 C 10.867188 -22.105469 12.566406 -20.847656 12.9375 -19.367188 C 13.160156 -18.40625 13.269531 -17.484375 13.269531 -16.558594 C 13.269531 -15.523438 13.121094 -4.988281 7.503906 -2.882812 C 7.464844 -3.140625 7.464844 -3.328125 7.464844 -3.4375 C 7.761719 -6.542969 8.09375 -9.609375 8.464844 -12.714844 C 8.761719 -15.082031 8.90625 -17.484375 8.90625 -19.921875 C 8.90625 -20.550781 8.761719 -21.214844 8.613281 -21.957031 Z M 8.613281 -21.957031 "/></g></g></g><g fill="#ffde59" fill-opacity="1"><g transform="translate(61.342849, 30.894229)"><g><path d="M 5.804688 -24.914062 C 7.464844 -24.914062 12.273438 -24.800781 12.273438 -26.207031 C 12.273438 -27.242188 10.570312 -27.203125 9.941406 -27.203125 C 7.984375 -27.09375 5.949219 -27.128906 3.953125 -26.648438 C 3.882812 -26.648438 3.808594 -26.613281 3.734375 -26.613281 C 3.546875 -26.613281 3.402344 -26.648438 3.289062 -26.648438 C 2.585938 -26.613281 2.253906 -26.316406 2.253906 -25.6875 C 2.253906 -24.617188 2.476562 -23.582031 2.476562 -22.65625 C 2.476562 -21.363281 2.328125 -20.070312 2.253906 -18.777344 C 2.070312 -15.042969 1.847656 -11.273438 1.847656 -7.539062 C 1.847656 -4.730469 1.960938 0.445312 3.84375 0.445312 C 3.882812 0.445312 3.917969 0.40625 3.953125 0.40625 C 4.398438 0.40625 4.84375 0.480469 5.285156 0.480469 C 5.949219 0.480469 6.578125 0.222656 7.246094 0.222656 C 7.613281 0.222656 8.019531 0.296875 8.390625 0.296875 C 9.980469 0.296875 12.234375 0.222656 12.234375 -1.183594 C 12.234375 -1.996094 10.867188 -2.144531 9.648438 -2.144531 C 9.128906 -2.179688 6.652344 -1.664062 6.652344 -3.066406 C 6.652344 -3.769531 6.875 -4.433594 6.875 -5.101562 C 6.875 -5.507812 6.800781 -5.914062 6.800781 -6.320312 C 6.800781 -7.652344 7.023438 -8.945312 7.023438 -10.164062 C 7.023438 -10.277344 6.984375 -10.421875 6.984375 -10.609375 C 6.984375 -12.050781 7.464844 -13.417969 7.464844 -14.75 C 7.464844 -15.636719 8.390625 -15.523438 9.09375 -15.523438 C 9.5 -15.523438 9.867188 -15.523438 10.238281 -15.523438 C 10.941406 -15.523438 11.644531 -15.300781 11.644531 -16.449219 C 11.644531 -17.777344 10.421875 -17.667969 9.941406 -17.667969 C 9.5 -17.667969 9.054688 -17.632812 8.648438 -17.632812 C 8.316406 -17.632812 8.019531 -17.632812 7.726562 -17.742188 C 7.464844 -19.367188 7.097656 -20.808594 6.875 -22.324219 C 6.726562 -23.324219 5.804688 -24.027344 5.804688 -24.726562 C 5.804688 -24.800781 5.804688 -24.839844 5.804688 -24.914062 Z M 5.804688 -24.914062 "/></g></g></g><g fill="#ffde59" fill-opacity="1"><g transform="translate(74.723376, 30.894229)"><g><path d="M 7.578125 0.0351562 C 8.6875 -2.550781 8.835938 -3.066406 9.203125 -5.433594 C 9.203125 -5.65625 9.203125 -5.804688 9.351562 -6.023438 C 9.980469 -7.761719 10.3125 -9.535156 10.71875 -11.3125 C 11.382812 -15.007812 12.125 -18.59375 13.714844 -21.917969 C 13.933594 -22.398438 14.046875 -23.175781 14.046875 -23.621094 C 14.046875 -24.210938 13.378906 -24.726562 13.011719 -24.726562 C 12.050781 -24.726562 11.050781 -20.664062 10.71875 -19.332031 C 9.683594 -15.449219 7.910156 -6.726562 7.726562 -6.726562 C 7.503906 -6.726562 6.910156 -10.570312 6.910156 -11.164062 C 6.910156 -11.570312 7.023438 -11.976562 7.023438 -12.382812 C 7.023438 -12.53125 7.023438 -12.679688 7.023438 -12.789062 C 6.542969 -15.710938 6.171875 -18.667969 4.917969 -21.402344 C 4.324219 -22.65625 2.992188 -24.359375 1.589844 -24.359375 C 1.332031 -24.359375 1.035156 -24.285156 0.738281 -24.136719 C 0.851562 -23.210938 0.851562 -22.175781 1.035156 -21.179688 C 1.367188 -19.367188 1.699219 -17.484375 1.960938 -15.636719 C 2.550781 -11.238281 2.957031 -6.875 3.695312 -2.441406 C 3.953125 -0.886719 4.695312 0.332031 6.617188 0.332031 C 6.910156 0.332031 7.246094 0.257812 7.578125 0.0351562 Z M 7.578125 0.0351562 "/></g></g></g><g fill="#ffde59" fill-opacity="1"><g transform="translate(89.138858, 30.894229)"><g><path d="M 4.730469 -24.652344 C 4.507812 -24.246094 4.25 -23.765625 4.101562 -23.285156 C 2.292969 -17.558594 1.886719 -12.199219 1.144531 -6.617188 C 0.996094 -4.769531 0.738281 -2.957031 0.738281 -1.183594 C 0.738281 -0.777344 0.738281 -0.40625 0.777344 -0.0351562 C 1.21875 0.222656 1.441406 0.371094 1.589844 0.371094 C 1.8125 0.371094 2.070312 -0.148438 2.402344 -0.925781 C 3.472656 -2.21875 3.03125 -7.800781 3.84375 -10.867188 C 4.066406 -10.867188 4.289062 -10.902344 4.546875 -10.902344 C 4.804688 -10.902344 5.101562 -10.867188 5.359375 -10.867188 C 6.097656 -10.867188 6.800781 -10.941406 7.539062 -11.382812 C 7.910156 -8.761719 8.207031 -5.433594 8.390625 -2.476562 C 8.464844 -1.367188 9.019531 -0.109375 10.164062 -0.109375 C 10.832031 -0.183594 11.570312 -0.0742188 12.234375 -0.445312 C 12.417969 -1.035156 12.566406 -1.550781 12.566406 -2.179688 C 12.566406 -2.585938 12.53125 -2.992188 12.53125 -3.402344 C 12.53125 -4.582031 12.789062 -5.765625 12.789062 -6.800781 C 12.789062 -7.132812 12.789062 -7.503906 12.753906 -7.835938 C 12.308594 -11.457031 12.011719 -14.121094 11.238281 -16.855469 C 10.203125 -20.035156 10.496094 -23.65625 6.949219 -24.652344 C 6.691406 -24.691406 6.46875 -24.914062 6.210938 -25.0625 C 5.765625 -24.914062 5.359375 -24.839844 4.730469 -24.652344 Z M 7.355469 -13.046875 C 6.503906 -12.789062 5.988281 -12.679688 5.433594 -12.679688 C 5.0625 -12.679688 3.953125 -12.605469 3.953125 -13.453125 C 3.953125 -14.453125 4.140625 -15.710938 4.472656 -16.671875 C 4.582031 -17.078125 4.953125 -22.289062 5.46875 -22.289062 C 5.691406 -22.289062 5.765625 -22.175781 5.804688 -22.03125 C 6.210938 -19 6.765625 -16.042969 7.355469 -13.046875 Z M 7.355469 -13.046875 "/></g></g></g><g fill="#ffde59" fill-opacity="1"><g transform="translate(104.145744, 30.894229)"><g><path d="M 4.769531 -24.726562 C 4.621094 -24.726562 4.363281 -24.800781 4.175781 -24.800781 C 2.921875 -24.800781 2.808594 -24.582031 2.699219 -23.101562 C 2.328125 -17.816406 2.511719 -12.273438 2.03125 -6.910156 C 1.921875 -5.914062 1.886719 -4.878906 1.886719 -3.882812 C 1.886719 -2.292969 1.699219 -0.554688 3.066406 0.183594 C 3.953125 -0.332031 4.175781 -1.035156 4.175781 -1.960938 C 4.175781 -4.289062 4.363281 -6.46875 4.363281 -8.796875 C 4.363281 -12.492188 4.027344 -16.117188 4.027344 -19.773438 C 4.027344 -20.292969 4.066406 -20.773438 4.140625 -21.328125 C 4.621094 -21.289062 5.46875 -17.519531 5.878906 -16.117188 C 7.097656 -12.011719 7.464844 -7.910156 8.722656 -3.953125 C 9.203125 -2.144531 10.238281 0.371094 12.050781 0.371094 C 12.53125 0.371094 13.011719 0.183594 13.417969 0.0742188 C 14.96875 -2.847656 14.15625 -5.691406 14.859375 -8.425781 C 15.007812 -9.09375 15.265625 -9.683594 15.265625 -10.347656 C 15.265625 -10.644531 15.117188 -10.941406 15.117188 -11.238281 C 15.117188 -11.457031 15.230469 -11.71875 15.265625 -11.902344 C 15.523438 -13.085938 15.5625 -14.339844 15.5625 -15.488281 C 15.488281 -17.667969 15.449219 -19.773438 15.449219 -21.769531 C 15.449219 -22.140625 15.488281 -22.511719 15.488281 -22.878906 C 15.488281 -23.804688 14.527344 -24.726562 13.75 -24.726562 C 13.011719 -24.726562 13.121094 -23.953125 13.121094 -23.359375 C 13.121094 -20.402344 13.378906 -17.113281 13.378906 -13.859375 C 13.378906 -13.160156 13.34375 -12.457031 13.269531 -11.792969 C 13.085938 -9.609375 13.269531 -6.285156 12.492188 -4.917969 C 12.050781 -5.617188 12.050781 -6.429688 12.050781 -7.171875 C 12.050781 -7.355469 12.050781 -7.578125 12.050781 -7.800781 C 12.050781 -9.351562 11.605469 -11.421875 11.164062 -12.972656 C 10.496094 -15.15625 9.722656 -17.519531 9.128906 -19.699219 C 8.167969 -22.03125 6.503906 -23.359375 4.769531 -24.726562 Z M 4.769531 -24.726562 "/></g></g></g><g fill="#ffde59" fill-opacity="1"><g transform="translate(121.555208, 30.894229)"><g/></g></g><g fill="#ffde59" fill-opacity="1"><g transform="translate(128.208511, 30.894229)"><g><path d="M 9.980469 -21.84375 C 10.347656 -21.695312 10.644531 -21.625 10.832031 -21.625 C 11.273438 -21.625 11.421875 -22.105469 11.421875 -23.066406 C 11.421875 -24.875 10.015625 -25.910156 8.242188 -25.910156 C 5.210938 -25.910156 3.660156 -22.878906 3.289062 -20.441406 C 2.402344 -16.597656 1.476562 -12.53125 1.476562 -8.574219 C 1.476562 -3.03125 3.03125 0.0351562 7.910156 0.0351562 C 8.648438 0.0351562 9.316406 -0.0742188 10.054688 -0.296875 C 12.125 -0.851562 13.714844 -3.808594 13.714844 -5.582031 C 13.714844 -6.285156 13.011719 -7.984375 12.382812 -7.984375 C 11.9375 -7.984375 11.828125 -7.058594 11.71875 -6.542969 C 11.570312 -4.289062 9.722656 -2.441406 7.320312 -2.441406 C 6.542969 -2.441406 5.765625 -2.585938 5.765625 -3.992188 C 5.765625 -5.730469 6.0625 -7.539062 6.0625 -9.277344 C 6.429688 -12.273438 7.097656 -15.523438 7.578125 -18.59375 C 7.6875 -19.40625 7.429688 -23.878906 9.09375 -23.878906 C 10.089844 -23.878906 9.980469 -22.730469 9.980469 -21.84375 Z M 9.980469 -21.84375 "/></g></g></g><g fill="#ffde59" fill-opacity="1"><g transform="translate(142.660953, 30.894229)"><g><path d="M 5.804688 -24.914062 C 7.464844 -24.914062 12.273438 -24.800781 12.273438 -26.207031 C 12.273438 -27.242188 10.570312 -27.203125 9.941406 -27.203125 C 7.984375 -27.09375 5.949219 -27.128906 3.953125 -26.648438 C 3.882812 -26.648438 3.808594 -26.613281 3.734375 -26.613281 C 3.546875 -26.613281 3.402344 -26.648438 3.289062 -26.648438 C 2.585938 -26.613281 2.253906 -26.316406 2.253906 -25.6875 C 2.253906 -24.617188 2.476562 -23.582031 2.476562 -22.65625 C 2.476562 -21.363281 2.328125 -20.070312 2.253906 -18.777344 C 2.070312 -15.042969 1.847656 -11.273438 1.847656 -7.539062 C 1.847656 -4.730469 1.960938 0.445312 3.84375 0.445312 C 3.882812 0.445312 3.917969 0.40625 3.953125 0.40625 C 4.398438 0.40625 4.84375 0.480469 5.285156 0.480469 C 5.949219 0.480469 6.578125 0.222656 7.246094 0.222656 C 7.613281 0.222656 8.019531 0.296875 8.390625 0.296875 C 9.980469 0.296875 12.234375 0.222656 12.234375 -1.183594 C 12.234375 -1.996094 10.867188 -2.144531 9.648438 -2.144531 C 9.128906 -2.179688 6.652344 -1.664062 6.652344 -3.066406 C 6.652344 -3.769531 6.875 -4.433594 6.875 -5.101562 C 6.875 -5.507812 6.800781 -5.914062 6.800781 -6.320312 C 6.800781 -7.652344 7.023438 -8.945312 7.023438 -10.164062 C 7.023438 -10.277344 6.984375 -10.421875 6.984375 -10.609375 C 6.984375 -12.050781 7.464844 -13.417969 7.464844 -14.75 C 7.464844 -15.636719 8.390625 -15.523438 9.09375 -15.523438 C 9.5 -15.523438 9.867188 -15.523438 10.238281 -15.523438 C 10.941406 -15.523438 11.644531 -15.300781 11.644531 -16.449219 C 11.644531 -17.777344 10.421875 -17.667969 9.941406 -17.667969 C 9.5 -17.667969 9.054688 -17.632812 8.648438 -17.632812 C 8.316406 -17.632812 8.019531 -17.632812 7.726562 -17.742188 C 7.464844 -19.367188 7.097656 -20.808594 6.875 -22.324219 C 6.726562 -23.324219 5.804688 -24.027344 5.804688 -24.726562 C 5.804688 -24.800781 5.804688 -24.839844 5.804688 -24.914062 Z M 5.804688 -24.914062 "/></g></g></g><g fill="#ffde59" fill-opacity="1"><g transform="translate(156.04148, 30.894229)"><g><path d="M 2.179688 -26.648438 C 2.179688 -25.835938 2.292969 -25.023438 2.292969 -24.171875 C 2.070312 -20.402344 1.847656 -16.597656 1.847656 -12.753906 C 1.847656 -10.277344 1.886719 -7.6875 1.886719 -5.175781 C 1.886719 -3.066406 1.960938 -2.773438 3.769531 -0.0742188 C 3.882812 0.257812 4.214844 0.332031 4.546875 0.332031 C 5.46875 0.257812 6.429688 0.0742188 7.207031 0.0742188 C 7.246094 0.0742188 7.28125 0.0742188 7.320312 0.0742188 C 8.425781 0.0742188 9.425781 -0.109375 10.421875 -0.296875 C 11.605469 -0.371094 13.527344 -0.371094 14.304688 -1.257812 C 13.859375 -2.550781 13.824219 -2.734375 12.714844 -2.734375 C 11.976562 -2.734375 11.382812 -2.660156 10.71875 -2.550781 C 9.054688 -2.105469 7.390625 -2.21875 5.617188 -2.03125 C 5.691406 -3.214844 6.097656 -4.140625 6.097656 -4.988281 C 6.097656 -5.988281 5.949219 -6.984375 5.949219 -7.984375 C 5.949219 -12.640625 6.503906 -16.558594 6.503906 -20.589844 C 6.503906 -21.660156 6.285156 -22.621094 6.097656 -23.65625 C 5.878906 -24.765625 4.730469 -27.09375 3.363281 -27.09375 C 2.957031 -27.09375 2.550781 -26.984375 2.179688 -26.648438 Z M 2.179688 -26.648438 "/></g></g></g><g fill="#ffde59" fill-opacity="1"><g transform="translate(170.346079, 30.894229)"><g><path d="M 2.179688 -26.648438 C 2.179688 -25.835938 2.292969 -25.023438 2.292969 -24.171875 C 2.070312 -20.402344 1.847656 -16.597656 1.847656 -12.753906 C 1.847656 -10.277344 1.886719 -7.6875 1.886719 -5.175781 C 1.886719 -3.066406 1.960938 -2.773438 3.769531 -0.0742188 C 3.882812 0.257812 4.214844 0.332031 4.546875 0.332031 C 5.46875 0.257812 6.429688 0.0742188 7.207031 0.0742188 C 7.246094 0.0742188 7.28125 0.0742188 7.320312 0.0742188 C 8.425781 0.0742188 9.425781 -0.109375 10.421875 -0.296875 C 11.605469 -0.371094 13.527344 -0.371094 14.304688 -1.257812 C 13.859375 -2.550781 13.824219 -2.734375 12.714844 -2.734375 C 11.976562 -2.734375 11.382812 -2.660156 10.71875 -2.550781 C 9.054688 -2.105469 7.390625 -2.21875 5.617188 -2.03125 C 5.691406 -3.214844 6.097656 -4.140625 6.097656 -4.988281 C 6.097656 -5.988281 5.949219 -6.984375 5.949219 -7.984375 C 5.949219 -12.640625 6.503906 -16.558594 6.503906 -20.589844 C 6.503906 -21.660156 6.285156 -22.621094 6.097656 -23.65625 C 5.878906 -24.765625 4.730469 -27.09375 3.363281 -27.09375 C 2.957031 -27.09375 2.550781 -26.984375 2.179688 -26.648438 Z M 2.179688 -26.648438 "/></g></g></g></svg>